{
    "asset" : {
        "generator" : "Khronos glTF Blender I/O v1.2.75",
        "version" : "2.0"
    },
    "scene" : 0,
    "scenes" : [
        {
            "name" : "Scene",
            "nodes" : [
                0
            ]
        }
    ],
    "nodes" : [
        {
            "mesh" : 0,
            "name" : "obj_0"
        }
    ],
    "materials" : [
        {
            "doubleSided" : true,
            "emissiveFactor" : [
                0,
                0,
                0
            ],
            "name" : "color_40919",
            "pbrMetallicRoughness" : {
                "baseColorFactor" : [
                    0,
                    0.6235294342041016,
                    0.843137264251709,
                    1
                ],
                "metallicFactor" : 0,
                "roughnessFactor" : 1
            }
        },
        {
            "doubleSided" : true,
            "emissiveFactor" : [
                0,
                0,
                0
            ],
            "name" : "color_2829873",
            "pbrMetallicRoughness" : {
                "baseColorFactor" : [
                    0.16862745583057404,
                    0.18039216101169586,
                    0.1921568661928177,
                    1
                ],
                "metallicFactor" : 0,
                "roughnessFactor" : 1
            }
        },
        {
            "doubleSided" : true,
            "emissiveFactor" : [
                0,
                0,
                0
            ],
            "name" : "color_4634441",
            "pbrMetallicRoughness" : {
                "baseColorFactor" : [
                    0.27450981736183167,
                    0.7176470756530762,
                    0.2862745225429535,
                    1
                ],
                "metallicFactor" : 0,
                "roughnessFactor" : 1
            }
        },
        {
            "doubleSided" : true,
            "emissiveFactor" : [
                0,
                0,
                0
            ],
            "name" : "color_8768998",
            "pbrMetallicRoughness" : {
                "baseColorFactor" : [
                    0.5215686559677124,
                    0.8039215803146362,
                    0.9019607901573181,
                    1
                ],
                "metallicFactor" : 0,
                "roughnessFactor" : 1
            }
        },
        {
            "doubleSided" : true,
            "emissiveFactor" : [
                0,
                0,
                0
            ],
            "name" : "color_10988977",
            "pbrMetallicRoughness" : {
                "baseColorFactor" : [
                    0.6549019813537598,
                    0.6784313917160034,
                    0.6941176652908325,
                    1
                ],
                "metallicFactor" : 0,
                "roughnessFactor" : 1
            }
        },
        {
            "doubleSided" : true,
            "emissiveFactor" : [
                0,
                0,
                0
            ],
            "name" : "color_15277357",
            "pbrMetallicRoughness" : {
                "baseColorFactor" : [
                    0.9137254953384399,
                    0.11372549086809158,
                    0.1764705926179886,
                    1
                ],
                "metallicFactor" : 0,
                "roughnessFactor" : 1
            }
        },
        {
            "doubleSided" : true,
            "emissiveFactor" : [
                0,
                0,
                0
            ],
            "name" : "color_16448250",
            "pbrMetallicRoughness" : {
                "baseColorFactor" : [
                    0.9803921580314636,
                    0.9803921580314636,
                    0.9803921580314636,
                    1
                ],
                "metallicFactor" : 0,
                "roughnessFactor" : 1
            }
        },
        {
            "doubleSided" : true,
            "emissiveFactor" : [
                0,
                0,
                0
            ],
            "name" : "color_16768282",
            "pbrMetallicRoughness" : {
                "baseColorFactor" : [
                    1,
                    0.8666666746139526,
                    0.10196078568696976,
                    1
                ],
                "metallicFactor" : 0,
                "roughnessFactor" : 1
            }
        }
    ],
    "meshes" : [
        {
            "name" : "obj_0",
            "primitives" : [
                {
                    "attributes" : {
                        "POSITION" : 0,
                        "NORMAL" : 1
                    },
                    "indices" : 2,
                    "material" : 0
                },
                {
                    "attributes" : {
                        "POSITION" : 3,
                        "NORMAL" : 4
                    },
                    "indices" : 5,
                    "material" : 1
                },
                {
                    "attributes" : {
                        "POSITION" : 6,
                        "NORMAL" : 7
                    },
                    "indices" : 8,
                    "material" : 2
                },
                {
                    "attributes" : {
                        "POSITION" : 9,
                        "NORMAL" : 10
                    },
                    "indices" : 11,
                    "material" : 3
                },
                {
                    "attributes" : {
                        "POSITION" : 12,
                        "NORMAL" : 13
                    },
                    "indices" : 14,
                    "material" : 4
                },
                {
                    "attributes" : {
                        "POSITION" : 15,
                        "NORMAL" : 16
                    },
                    "indices" : 17,
                    "material" : 5
                },
                {
                    "attributes" : {
                        "POSITION" : 18,
                        "NORMAL" : 19
                    },
                    "indices" : 20,
                    "material" : 6
                },
                {
                    "attributes" : {
                        "POSITION" : 21,
                        "NORMAL" : 22
                    },
                    "indices" : 23,
                    "material" : 7
                }
            ]
        }
    ],
    "accessors" : [
        {
            "bufferView" : 0,
            "componentType" : 5126,
            "count" : 16,
            "max" : [
                20.72100067138672,
                61.154998779296875,
                68.24369812011719
            ],
            "min" : [
                16.711000442504883,
                44.91999816894531,
                36.19300079345703
            ],
            "type" : "VEC3"
        },
        {
            "bufferView" : 1,
            "componentType" : 5126,
            "count" : 16,
            "type" : "VEC3"
        },
        {
            "bufferView" : 2,
            "componentType" : 5123,
            "count" : 78,
            "type" : "SCALAR"
        },
        {
            "bufferView" : 3,
            "componentType" : 5126,
            "count" : 12,
            "max" : [
                41,
                45,
                9
            ],
            "min" : [
                -2,
                25,
                -20
            ],
            "type" : "VEC3"
        },
        {
            "bufferView" : 4,
            "componentType" : 5126,
            "count" : 12,
            "type" : "VEC3"
        },
        {
            "bufferView" : 5,
            "componentType" : 5123,
            "count" : 42,
            "type" : "SCALAR"
        },
        {
            "bufferView" : 6,
            "componentType" : 5126,
            "count" : 8,
            "max" : [
                8.583999633789062,
                27,
                70.74199676513672
            ],
            "min" : [
                -45.41600036621094,
                25,
                49.742000579833984
            ],
            "type" : "VEC3"
        },
        {
            "bufferView" : 7,
            "componentType" : 5126,
            "count" : 8,
            "type" : "VEC3"
        },
        {
            "bufferView" : 8,
            "componentType" : 5123,
            "count" : 30,
            "type" : "SCALAR"
        },
        {
            "bufferView" : 9,
            "componentType" : 5126,
            "count" : 12,
            "max" : [
                25,
                47.137001037597656,
                72
            ],
            "min" : [
                12.862000465393066,
                26.863000869750977,
                60
            ],
            "type" : "VEC3"
        },
        {
            "bufferView" : 10,
            "componentType" : 5126,
            "count" : 12,
            "type" : "VEC3"
        },
        {
            "bufferView" : 11,
            "componentType" : 5123,
            "count" : 54,
            "type" : "SCALAR"
        },
        {
            "bufferView" : 12,
            "componentType" : 5126,
            "count" : 29,
            "max" : [
                32.58399963378906,
                26,
                44.742000579833984
            ],
            "min" : [
                -41.41600036621094,
                25,
                9
            ],
            "type" : "VEC3"
        },
        {
            "bufferView" : 13,
            "componentType" : 5126,
            "count" : 29,
            "type" : "VEC3"
        },
        {
            "bufferView" : 14,
            "componentType" : 5123,
            "count" : 99,
            "type" : "SCALAR"
        },
        {
            "bufferView" : 15,
            "componentType" : 5126,
            "count" : 33,
            "max" : [
                41.395999908447266,
                25,
                74.21099853515625
            ],
            "min" : [
                -49.604000091552734,
                0,
                -20.788999557495117
            ],
            "type" : "VEC3"
        },
        {
            "bufferView" : 16,
            "componentType" : 5126,
            "count" : 33,
            "type" : "VEC3"
        },
        {
            "bufferView" : 17,
            "componentType" : 5123,
            "count" : 135,
            "type" : "SCALAR"
        },
        {
            "bufferView" : 18,
            "componentType" : 5126,
            "count" : 8,
            "max" : [
                28.583999633789062,
                27,
                36.742000579833984
            ],
            "min" : [
                9.583999633789062,
                26,
                23.742000579833984
            ],
            "type" : "VEC3"
        },
        {
            "bufferView" : 19,
            "componentType" : 5126,
            "count" : 8,
            "type" : "VEC3"
        },
        {
            "bufferView" : 20,
            "componentType" : 5123,
            "count" : 30,
            "type" : "SCALAR"
        },
        {
            "bufferView" : 21,
            "componentType" : 5126,
            "count" : 12,
            "max" : [
                -8.416000366210938,
                45,
                9.741999626159668
            ],
            "min" : [
                -46.41600036621094,
                25,
                -19.257999420166016
            ],
            "type" : "VEC3"
        },
        {
            "bufferView" : 22,
            "componentType" : 5126,
            "count" : 12,
            "type" : "VEC3"
        },
        {
            "bufferView" : 23,
            "componentType" : 5123,
            "count" : 42,
            "type" : "SCALAR"
        }
    ],
    "bufferViews" : [
        {
            "buffer" : 0,
            "byteLength" : 192,
            "byteOffset" : 0
        },
        {
            "buffer" : 0,
            "byteLength" : 192,
            "byteOffset" : 192
        },
        {
            "buffer" : 0,
            "byteLength" : 156,
            "byteOffset" : 384
        },
        {
            "buffer" : 0,
            "byteLength" : 144,
            "byteOffset" : 540
        },
        {
            "buffer" : 0,
            "byteLength" : 144,
            "byteOffset" : 684
        },
        {
            "buffer" : 0,
            "byteLength" : 84,
            "byteOffset" : 828
        },
        {
            "buffer" : 0,
            "byteLength" : 96,
            "byteOffset" : 912
        },
        {
            "buffer" : 0,
            "byteLength" : 96,
            "byteOffset" : 1008
        },
        {
            "buffer" : 0,
            "byteLength" : 60,
            "byteOffset" : 1104
        },
        {
            "buffer" : 0,
            "byteLength" : 144,
            "byteOffset" : 1164
        },
        {
            "buffer" : 0,
            "byteLength" : 144,
            "byteOffset" : 1308
        },
        {
            "buffer" : 0,
            "byteLength" : 108,
            "byteOffset" : 1452
        },
        {
            "buffer" : 0,
            "byteLength" : 348,
            "byteOffset" : 1560
        },
        {
            "buffer" : 0,
            "byteLength" : 348,
            "byteOffset" : 1908
        },
        {
            "buffer" : 0,
            "byteLength" : 198,
            "byteOffset" : 2256
        },
        {
            "buffer" : 0,
            "byteLength" : 396,
            "byteOffset" : 2456
        },
        {
            "buffer" : 0,
            "byteLength" : 396,
            "byteOffset" : 2852
        },
        {
            "buffer" : 0,
            "byteLength" : 270,
            "byteOffset" : 3248
        },
        {
            "buffer" : 0,
            "byteLength" : 96,
            "byteOffset" : 3520
        },
        {
            "buffer" : 0,
            "byteLength" : 96,
            "byteOffset" : 3616
        },
        {
            "buffer" : 0,
            "byteLength" : 60,
            "byteOffset" : 3712
        },
        {
            "buffer" : 0,
            "byteLength" : 144,
            "byteOffset" : 3772
        },
        {
            "buffer" : 0,
            "byteLength" : 144,
            "byteOffset" : 3916
        },
        {
            "buffer" : 0,
            "byteLength" : 84,
            "byteOffset" : 4060
        }
    ],
    "buffers" : [
        {
            "byteLength" : 4144,
            "uri" : "prototipo1.bin"
        }
    ]
}
